<?xml version="1.0" encoding="UTF-8"?>
<svg xmlns="http://www.w3.org/2000/svg" viewBox="0 0 1200 900" width="1200" height="900" role="img" aria-label="Elastic Stack exploded-view teardown diagram">
  <defs>
    <linearGradient id="bgGrad" x1="0" y1="0" x2="1" y2="1">
      <stop offset="0%" stop-color="#0a0e12"/>
      <stop offset="50%" stop-color="#12161A"/>
      <stop offset="100%" stop-color="#0d1520"/>
    </linearGradient>
    <radialGradient id="floorGlow" cx="50%" cy="55%" r="45%">
      <stop offset="0%" stop-color="#48EFCF" stop-opacity="0.14"/>
      <stop offset="100%" stop-color="#48EFCF" stop-opacity="0"/>
    </radialGradient>
    <linearGradient id="kibanaGlass" x1="0" y1="0" x2="1" y2="1">
      <stop offset="0%" stop-color="#F04E98" stop-opacity="0.55"/>
      <stop offset="45%" stop-color="#A163E4" stop-opacity="0.35"/>
      <stop offset="100%" stop-color="#2a1030" stop-opacity="0.75"/>
    </linearGradient>
    <linearGradient id="esGlass" x1="0" y1="0" x2="1" y2="1">
      <stop offset="0%" stop-color="#00BFB3" stop-opacity="0.5"/>
      <stop offset="50%" stop-color="#0B64DD" stop-opacity="0.4"/>
      <stop offset="100%" stop-color="#0a2a40" stop-opacity="0.8"/>
    </linearGradient>
    <linearGradient id="lsGlass" x1="0" y1="0" x2="1" y2="1">
      <stop offset="0%" stop-color="#FEC514" stop-opacity="0.45"/>
      <stop offset="55%" stop-color="#F04E98" stop-opacity="0.25"/>
      <stop offset="100%" stop-color="#3a2810" stop-opacity="0.8"/>
    </linearGradient>
    <linearGradient id="beatsGlass" x1="0" y1="0" x2="1" y2="1">
      <stop offset="0%" stop-color="#00BFB3" stop-opacity="0.45"/>
      <stop offset="100%" stop-color="#0a3028" stop-opacity="0.8"/>
    </linearGradient>
    <filter id="softGlow" x="-40%" y="-40%" width="180%" height="180%">
      <feGaussianBlur stdDeviation="3" result="b"/>
      <feMerge><feMergeNode in="b"/><feMergeNode in="SourceGraphic"/></feMerge>
    </filter>
    <filter id="strongGlow" x="-50%" y="-50%" width="200%" height="200%">
      <feGaussianBlur stdDeviation="6" result="b"/>
      <feMerge><feMergeNode in="b"/><feMergeNode in="SourceGraphic"/></feMerge>
    </filter>
    <pattern id="microGrid" width="14" height="14" patternUnits="userSpaceOnUse">
      <path d="M14 0H0V14" fill="none" stroke="rgba(255,255,255,0.12)" stroke-width="0.6"/>
      <circle cx="0" cy="0" r="0.8" fill="rgba(255,255,255,0.2)"/>
    </pattern>
    <clipPath id="boardClip">
      <polygon points="0,-70 140,0 0,70 -140,0"/>
    </clipPath>
  </defs>

  <style><![CDATA[
    :root { --bg: #12161A; }
    svg { font-family: "IBM Plex Mono", "SF Mono", ui-monospace, Menlo, Consolas, monospace; background: #12161A; }
    .layer { transform-box: fill-box; transform-origin: center; transition: opacity 0.35s ease, filter 0.35s ease; }
    .layer.is-dim { opacity: 0.22; filter: grayscale(0.4); }
    .layer.is-hot { opacity: 1; filter: url(#strongGlow); }
    .callout { opacity: 0; transition: opacity 0.25s ease; pointer-events: none; }
    .layer.is-hot .callout { opacity: 1; }
    .chip { transition: fill 0.25s ease, stroke 0.25s ease; }
    .layer.is-hot .chip { stroke-width: 1.4; }
    .stream { fill: none; stroke-linecap: round; stroke-dasharray: 5 10; animation: dashFlow 2.4s linear infinite; opacity: 0.85; }
    .stream.s2 { animation-delay: -0.6s; }
    .stream.s3 { animation-delay: -1.2s; }
    .particle { filter: url(#softGlow); }
    #stage {
      transform-origin: 600px 480px;
      animation: explodeLoop 8s cubic-bezier(0.45, 0.05, 0.2, 1) infinite;
    }
    #layer-kibana { --lift: -118px; }
    #layer-es { --lift: -36px; }
    #layer-logstash { --lift: 42px; }
    #layer-beats { --lift: 118px; }
    .layer-motion {
      animation: layerBob 8s cubic-bezier(0.45, 0.05, 0.2, 1) infinite;
    }
    #layer-kibana .layer-motion { animation-name: liftKibana; }
    #layer-es .layer-motion { animation-name: liftEs; }
    #layer-logstash .layer-motion { animation-name: liftLogstash; }
    #layer-beats .layer-motion { animation-name: liftBeats; }
    @keyframes liftKibana {
      0%, 12% { transform: translate(0, 0); }
      38%, 62% { transform: translate(42px, -118px); }
      88%, 100% { transform: translate(0, 0); }
    }
    @keyframes liftEs {
      0%, 12% { transform: translate(0, 0); }
      38%, 62% { transform: translate(14px, -36px); }
      88%, 100% { transform: translate(0, 0); }
    }
    @keyframes liftLogstash {
      0%, 12% { transform: translate(0, 0); }
      38%, 62% { transform: translate(-14px, 42px); }
      88%, 100% { transform: translate(0, 0); }
    }
    @keyframes liftBeats {
      0%, 12% { transform: translate(0, 0); }
      38%, 62% { transform: translate(-42px, 118px); }
      88%, 100% { transform: translate(0, 0); }
    }
    @keyframes explodeLoop {
      0%, 100% { transform: rotateX(0deg) rotateZ(0deg); }
      50% { transform: rotateX(2deg) rotateZ(-1deg); }
    }
    @keyframes dashFlow {
      to { stroke-dashoffset: -60; }
    }
    @keyframes pulseDot {
      0%, 100% { opacity: 0.3; }
      50% { opacity: 1; }
    }
    .hint {
      fill: rgba(255,255,255,0.45);
      font-size: 11px;
      letter-spacing: 0.08em;
      text-transform: uppercase;
    }
    .title {
      fill: #E8EEF5;
      font-size: 22px;
      font-weight: 700;
      letter-spacing: -0.02em;
      font-family: "Inter", "Segoe UI", system-ui, sans-serif;
    }
    .subtitle {
      fill: rgba(232,238,245,0.5);
      font-size: 12px;
      font-family: "Inter", "Segoe UI", system-ui, sans-serif;
    }
    .num {
      fill: #12161A;
      font-size: 11px;
      font-weight: 800;
      font-family: "Inter", system-ui, sans-serif;
    }
    .label {
      fill: #E8EEF5;
      font-size: 13px;
      font-weight: 700;
      font-family: "Inter", system-ui, sans-serif;
    }
    .micro {
      fill: rgba(232,238,245,0.55);
      font-size: 8px;
      letter-spacing: 0.04em;
    }
    .hit { cursor: pointer; }
    #parallaxRoot { transition: transform 0.12s linear; transform-origin: 600px 450px; }
  ]]></style>

  <!-- Background -->
  <rect width="1200" height="900" fill="url(#bgGrad)"/>
  <ellipse cx="600" cy="520" rx="420" ry="160" fill="url(#floorGlow)"/>
  <g opacity="0.25" stroke="rgba(72,239,207,0.25)" stroke-width="0.6" fill="none">
    <path d="M120 560 L600 360 L1080 560 L600 760 Z"/>
    <path d="M220 560 L600 400 L980 560 L600 720 Z"/>
    <path d="M320 560 L600 440 L880 560 L600 680 Z"/>
  </g>

  <!-- Header -->
  <text class="title" x="48" y="52">Elastic Stack</text>
  <text class="subtitle" x="48" y="74">Exploded-view architecture teardown - Beats to Logstash to Elasticsearch to Kibana</text>
  <text class="hint" x="48" y="860">Hover a layer to inspect - Continuous explode / reassemble loop</text>

  <g id="parallaxRoot">
    <g id="stage">

      <!-- Assembly guide rails -->
      <g id="rails" opacity="0.35" stroke="#48EFCF" stroke-width="1" stroke-dasharray="3 6" fill="none">
        <path d="M470 620 L670 280"/>
        <path d="M530 640 L730 300"/>
        <path d="M590 650 L790 310"/>
      </g>

      <!-- Data streams (upward Beats to Kibana) -->
      <g id="streams" filter="url(#softGlow)">
        <path class="stream" d="M520 640 C540 560, 560 480, 600 360" stroke="#00BFB3" stroke-width="1.6"/>
        <path class="stream s2" d="M560 650 C575 560, 590 470, 620 350" stroke="#FEC514" stroke-width="1.4"/>
        <path class="stream s3" d="M600 655 C610 555, 630 450, 650 340" stroke="#00BFB3" stroke-width="1.3"/>
        <circle class="particle" r="3" fill="#00BFB3">
          <animateMotion dur="3.2s" repeatCount="indefinite" path="M520 640 C540 560, 560 480, 600 360"/>
        </circle>
        <circle class="particle" r="2.5" fill="#FEC514">
          <animateMotion dur="2.8s" begin="0.5s" repeatCount="indefinite" path="M560 650 C575 560, 590 470, 620 350"/>
        </circle>
        <circle class="particle" r="2.5" fill="#F04E98">
          <animateMotion dur="3.5s" begin="1s" repeatCount="indefinite" path="M600 655 C610 555, 630 450, 650 340"/>
        </circle>
      </g>

      <!-- ========== BEATS (bottom) ========== -->
      <g id="layer-beats" class="layer" data-layer="beats">
        <g class="layer-motion">
          <g transform="translate(520,620)">
            <g class="hit">
              <!-- Glass board -->
              <polygon points="0,-68 148,0 0,68 -148,0" fill="url(#beatsGlass)" stroke="#00BFB3" stroke-width="1.5" stroke-opacity="0.85"/>
              <polygon points="0,-68 148,0 0,68 -148,0" fill="url(#microGrid)" opacity="0.55" clip-path="url(#boardClip)"/>
              <!-- Extrusion edge -->
              <polygon points="-148,0 0,68 0,82 -148,14" fill="#0a2820" opacity="0.85"/>
              <polygon points="148,0 0,68 0,82 148,14" fill="#064038" opacity="0.9"/>
              <!-- Shipping modules -->
              <g transform="translate(-70,-8)">
                <rect class="chip" x="-28" y="-14" width="56" height="28" rx="3" fill="#0d3d34" stroke="#00BFB3" stroke-width="1"/>
                <text class="micro" x="0" y="3" text-anchor="middle" fill="#7dffd6">FILEBEAT</text>
              </g>
              <g transform="translate(0,-8)">
                <rect class="chip" x="-28" y="-14" width="56" height="28" rx="3" fill="#0d3d34" stroke="#00BFB3" stroke-width="1"/>
                <text class="micro" x="0" y="3" text-anchor="middle" fill="#7dffd6">METRICBEAT</text>
              </g>
              <g transform="translate(70,-8)">
                <rect class="chip" x="-28" y="-14" width="56" height="28" rx="3" fill="#0d3d34" stroke="#00BFB3" stroke-width="1"/>
                <text class="micro" x="0" y="3" text-anchor="middle" fill="#7dffd6">PACKETBEAT</text>
              </g>
              <!-- Bus lines -->
              <path d="M-90 18 H90" stroke="#00BFB3" stroke-width="0.8" opacity="0.5"/>
              <path d="M-60 28 H60" stroke="#00BFB3" stroke-width="0.6" opacity="0.35" stroke-dasharray="2 3"/>
              <!-- Ports -->
              <circle cx="-110" cy="0" r="4" fill="#00BFB3" opacity="0.7"/>
              <circle cx="110" cy="0" r="4" fill="#00BFB3" opacity="0.7"/>
              <circle cx="0" cy="48" r="3.5" fill="#7dffd6" opacity="0.8">
                <animate attributeName="opacity" values="0.3;1;0.3" dur="1.6s" repeatCount="indefinite"/>
              </circle>
            </g>
            <!-- Callout -->
            <g class="callout" transform="translate(-210,10)">
              <circle cx="0" cy="0" r="12" fill="#00BFB3"/>
              <text class="num" x="0" y="4" text-anchor="middle">4</text>
              <text class="label" x="18" y="5">Beats</text>
              <text class="micro" x="18" y="18" fill="rgba(125,255,214,0.7)">Lightweight data shippers</text>
            </g>
          </g>
        </g>
      </g>

      <!-- ========== LOGSTASH ========== -->
      <g id="layer-logstash" class="layer" data-layer="logstash">
        <g class="layer-motion">
          <g transform="translate(560,520)">
            <g class="hit">
              <polygon points="0,-68 148,0 0,68 -148,0" fill="url(#lsGlass)" stroke="#FEC514" stroke-width="1.5" stroke-opacity="0.9"/>
              <polygon points="0,-68 148,0 0,68 -148,0" fill="url(#microGrid)" opacity="0.5"/>
              <polygon points="-148,0 0,68 0,82 -148,14" fill="#3a2810" opacity="0.85"/>
              <polygon points="148,0 0,68 0,82 148,14" fill="#4a3010" opacity="0.9"/>
              <!-- Pipeline nodes: Inputs / Filters / Outputs -->
              <g>
                <rect class="chip" x="-105" y="-22" width="52" height="36" rx="3" fill="#3a2a08" stroke="#FEC514" stroke-width="1"/>
                <text class="micro" x="-79" y="-2" text-anchor="middle" fill="#ffe08a">INPUTS</text>
                <circle cx="-92" cy="10" r="3" fill="#FEC514"/><circle cx="-79" cy="10" r="3" fill="#FEC514"/><circle cx="-66" cy="10" r="3" fill="#FEC514"/>
              </g>
              <g>
                <rect class="chip" x="-26" y="-22" width="52" height="36" rx="3" fill="#3a2a08" stroke="#FEC514" stroke-width="1"/>
                <text class="micro" x="0" y="-2" text-anchor="middle" fill="#ffe08a">FILTERS</text>
                <path d="M-12 8 H12" stroke="#FEC514" stroke-width="1.2"/>
                <path d="M-8 14 H8" stroke="#FEC514" stroke-width="0.8" opacity="0.6"/>
              </g>
              <g>
                <rect class="chip" x="53" y="-22" width="52" height="36" rx="3" fill="#3a2a08" stroke="#FEC514" stroke-width="1"/>
                <text class="micro" x="79" y="-2" text-anchor="middle" fill="#ffe08a">OUTPUTS</text>
                <polygon points="70,8 88,8 79,16" fill="#FEC514"/>
              </g>
              <!-- Pipeline bus -->
              <path d="M-53 0 H-26 M26 0 H53" stroke="#FEC514" stroke-width="1.4" opacity="0.7"/>
              <path d="M-90 32 H90" stroke="#FEC514" stroke-width="0.6" opacity="0.3" stroke-dasharray="2 2"/>
            </g>
            <g class="callout" transform="translate(170,-20)">
              <circle cx="0" cy="0" r="12" fill="#FEC514"/>
              <text class="num" x="0" y="4" text-anchor="middle">3</text>
              <text class="label" x="18" y="5" fill="#FEC514">Logstash</text>
              <text class="micro" x="18" y="18" fill="rgba(254,197,20,0.7)">Ingest pipeline matrix</text>
            </g>
          </g>
        </g>
      </g>

      <!-- ========== ELASTICSEARCH ========== -->
      <g id="layer-es" class="layer" data-layer="es">
        <g class="layer-motion">
          <g transform="translate(600,420)">
            <g class="hit">
              <polygon points="0,-72 156,0 0,72 -156,0" fill="url(#esGlass)" stroke="#00BFB3" stroke-width="1.6" stroke-opacity="0.95"/>
              <polygon points="0,-72 156,0 0,72 -156,0" fill="url(#microGrid)" opacity="0.55"/>
              <polygon points="-156,0 0,72 0,88 -156,16" fill="#0a2a40" opacity="0.9"/>
              <polygon points="156,0 0,72 0,88 156,16" fill="#0c3a58" opacity="0.95"/>
              <!-- Nodes -->
              <g transform="translate(-70,-18)">
                <rect class="chip" x="-30" y="-20" width="60" height="40" rx="3" fill="#0a3048" stroke="#48EFCF" stroke-width="1"/>
                <text class="micro" x="0" y="-4" text-anchor="middle" fill="#48EFCF">NODE A</text>
                <rect x="-18" y="4" width="14" height="10" rx="1" fill="#0B64DD" opacity="0.8"/>
                <rect x="4" y="4" width="14" height="10" rx="1" fill="#00BFB3" opacity="0.8"/>
              </g>
              <g transform="translate(70,-18)">
                <rect class="chip" x="-30" y="-20" width="60" height="40" rx="3" fill="#0a3048" stroke="#48EFCF" stroke-width="1"/>
                <text class="micro" x="0" y="-4" text-anchor="middle" fill="#48EFCF">NODE B</text>
                <rect x="-18" y="4" width="14" height="10" rx="1" fill="#0B64DD" opacity="0.8"/>
                <rect x="4" y="4" width="14" height="10" rx="1" fill="#00BFB3" opacity="0.8"/>
              </g>
              <!-- Shards -->
              <g transform="translate(0,22)">
                <text class="micro" x="0" y="-10" text-anchor="middle" fill="rgba(72,239,207,0.7)">SHARDS</text>
                <rect x="-50" y="-2" width="22" height="14" rx="2" fill="#0B64DD" opacity="0.85"/>
                <rect x="-22" y="-2" width="22" height="14" rx="2" fill="#00BFB3" opacity="0.85"/>
                <rect x="6" y="-2" width="22" height="14" rx="2" fill="#0B64DD" opacity="0.7"/>
                <rect x="34" y="-2" width="22" height="14" rx="2" fill="#00BFB3" opacity="0.7"/>
              </g>
              <!-- Indexing pathways -->
              <path d="M-70 2 C-40 18, 40 18, 70 2" fill="none" stroke="#48EFCF" stroke-width="1" opacity="0.55" stroke-dasharray="3 3"/>
              <circle cx="0" cy="-40" r="5" fill="#48EFCF" filter="url(#softGlow)">
                <animate attributeName="r" values="4;6;4" dur="2s" repeatCount="indefinite"/>
              </circle>
            </g>
            <g class="callout" transform="translate(180,-30)">
              <circle cx="0" cy="0" r="12" fill="#00BFB3"/>
              <text class="num" x="0" y="4" text-anchor="middle">2</text>
              <text class="label" x="18" y="5" fill="#48EFCF">Elasticsearch</text>
              <text class="micro" x="18" y="18" fill="rgba(72,239,207,0.7)">Nodes / shards / indexing</text>
            </g>
          </g>
        </g>
      </g>

      <!-- ========== KIBANA (top) ========== -->
      <g id="layer-kibana" class="layer" data-layer="kibana">
        <g class="layer-motion">
          <g transform="translate(640,320)">
            <g class="hit">
              <polygon points="0,-68 148,0 0,68 -148,0" fill="url(#kibanaGlass)" stroke="#F04E98" stroke-width="1.6" stroke-opacity="0.95"/>
              <polygon points="0,-68 148,0 0,68 -148,0" fill="url(#microGrid)" opacity="0.45"/>
              <polygon points="-148,0 0,68 0,82 -148,14" fill="#2a1030" opacity="0.9"/>
              <polygon points="148,0 0,68 0,82 148,14" fill="#3a1848" opacity="0.95"/>
              <!-- Dashboard UI -->
              <g transform="translate(0,-6)">
                <rect x="-90" y="-28" width="180" height="52" rx="4" fill="rgba(10,8,20,0.55)" stroke="#F04E98" stroke-width="0.8" opacity="0.9"/>
                <!-- Bars -->
                <rect x="-75" y="4" width="10" height="14" fill="#F04E98" opacity="0.85"/>
                <rect x="-58" y="-4" width="10" height="22" fill="#A163E4" opacity="0.9"/>
                <rect x="-41" y="0" width="10" height="18" fill="#F04E98" opacity="0.75"/>
                <rect x="-24" y="-10" width="10" height="28" fill="#A163E4" opacity="0.95"/>
                <rect x="-7" y="-2" width="10" height="20" fill="#F04E98" opacity="0.8"/>
                <!-- Line chart -->
                <polyline points="30,12 48,2 62,8 78,-6 95,4" fill="none" stroke="#F04E98" stroke-width="1.6" filter="url(#softGlow)"/>
                <circle cx="30" cy="12" r="2" fill="#fff"/><circle cx="48" cy="2" r="2" fill="#fff"/>
                <circle cx="62" cy="8" r="2" fill="#fff"/><circle cx="78" cy="-6" r="2" fill="#fff"/>
                <circle cx="95" cy="4" r="2" fill="#fff"/>
                <text class="micro" x="-78" y="-14" fill="#ffb0d4">DASHBOARD</text>
              </g>
              <!-- Floating chart cards above board -->
              <g transform="translate(-40,-55)" opacity="0.95">
                <rect x="-22" y="-14" width="44" height="28" rx="3" fill="rgba(240,78,152,0.35)" stroke="#F04E98" stroke-width="0.9"/>
                <polyline points="-14,6 -4,-4 4,2 14,-8" fill="none" stroke="#fff" stroke-width="1.2"/>
              </g>
              <g transform="translate(45,-58)" opacity="0.9">
                <rect x="-20" y="-12" width="40" height="24" rx="3" fill="rgba(161,99,228,0.4)" stroke="#A163E4" stroke-width="0.9"/>
                <rect x="-12" y="0" width="5" height="8" fill="#fff" opacity="0.8"/>
                <rect x="-4" y="-4" width="5" height="12" fill="#fff" opacity="0.8"/>
                <rect x="4" y="-2" width="5" height="10" fill="#fff" opacity="0.8"/>
              </g>
            </g>
            <g class="callout" transform="translate(165,-40)">
              <circle cx="0" cy="0" r="12" fill="#F04E98"/>
              <text class="num" x="0" y="4" text-anchor="middle">1</text>
              <text class="label" x="18" y="5" fill="#F04E98">Kibana</text>
              <text class="micro" x="18" y="18" fill="rgba(240,78,152,0.75)">UI / dashboards / viz</text>
            </g>
          </g>
        </g>
      </g>

    </g>
  </g>

  <!-- Legend -->
  <g transform="translate(980,40)" font-family="Inter, system-ui, sans-serif">
    <text class="hint" x="0" y="0" fill="rgba(255,255,255,0.4)">Stack layers</text>
    <circle cx="8" cy="22" r="5" fill="#F04E98"/><text class="micro" x="20" y="25" fill="#E8EEF5">Kibana</text>
    <circle cx="8" cy="42" r="5" fill="#00BFB3"/><text class="micro" x="20" y="45" fill="#E8EEF5">Elasticsearch</text>
    <circle cx="8" cy="62" r="5" fill="#FEC514"/><text class="micro" x="20" y="65" fill="#E8EEF5">Logstash</text>
    <circle cx="8" cy="82" r="5" fill="#7dffd6"/><text class="micro" x="20" y="85" fill="#E8EEF5">Beats</text>
  </g>

  <script type="text/javascript"><![CDATA[
    (function () {
      var svg = document.documentElement;
      var root = document.getElementById('parallaxRoot');
      var layers = Array.prototype.slice.call(document.querySelectorAll('.layer'));
      var cx = 600, cy = 450;

      function clearHot() {
        layers.forEach(function (l) {
          l.classList.remove('is-hot', 'is-dim');
        });
      }

      layers.forEach(function (layer) {
        var hit = layer.querySelector('.hit');
        if (!hit) return;
        hit.addEventListener('mouseenter', function () {
          layers.forEach(function (l) {
            if (l === layer) {
              l.classList.add('is-hot');
              l.classList.remove('is-dim');
            } else {
              l.classList.add('is-dim');
              l.classList.remove('is-hot');
            }
          });
        });
        hit.addEventListener('mouseleave', clearHot);
      });

      svg.addEventListener('mousemove', function (e) {
        var rect = svg.getBoundingClientRect();
        var x = ((e.clientX - rect.left) / rect.width) * 1200;
        var y = ((e.clientY - rect.top) / rect.height) * 900;
        var dx = (x - cx) / cx;
        var dy = (y - cy) / cy;
        root.setAttribute(
          'transform',
          'translate(' + (dx * 14) + ',' + (dy * 10) + ') rotate(' + (dx * 1.8) + ' ' + cx + ' ' + cy + ')'
        );
      });

      svg.addEventListener('mouseleave', function () {
        root.setAttribute('transform', 'translate(0,0)');
        clearHot();
      });
    })();
  ]]></script>
</svg>
